<svg xmlns="http://www.w3.org/2000/svg" viewBox="0 0 48 48" fill="none">
  <defs>
    <linearGradient id="thg" x1="0" y1="0" x2="48" y2="48" gradientUnits="userSpaceOnUse">
      <stop stop-color="#1d4ed8"/>
      <stop offset="1" stop-color="#0ea5e9"/>
    </linearGradient>
  </defs>
  <path fill="url(#thg)" d="M19 4h10a2 2 0 0 1 0 4h-1v9.3l9.6 16.6A5 5 0 0 1 33.3 41H14.7a5 5 0 0 1-4.3-7.1L20 17.3V8h-1a2 2 0 0 1 0-4Z"/>
  <path fill="#fff" fill-opacity=".9" d="M22.5 18.2V8h3v10.2l3.3 5.8H19.2l3.3-5.8Z"/>
  <circle cx="20" cy="32" r="2" fill="#fff" fill-opacity=".85"/>
  <circle cx="27" cy="35" r="1.5" fill="#fff" fill-opacity=".7"/>
</svg>
